<svg width="642" height="315" viewBox="0 0 642 315" fill="none" xmlns="http://www.w3.org/2000/svg">
<path fill-rule="evenodd" clip-rule="evenodd" d="M131.482 1.78403C18.4653 19.5494 -37.4074 151.916 27.6375 247.802C67.7842 306.984 149.296 330.311 213.762 301.069C238.572 289.816 299.141 253.195 299.141 249.449C299.141 247.379 277.854 233.681 274.651 233.689C273.892 233.691 268.016 237.156 261.591 241.386C189.773 288.688 148.787 296.35 98.874 271.802C-1.50965 222.433 8.53038 72.8753 114.728 35.6324C134.815 28.5897 173.64 28.6598 192.332 35.7743C208.657 41.9892 236.492 56.9057 261.903 73.0606C316.315 107.65 328.032 114.851 345.783 124.609C356.308 130.397 373.963 138.922 385.018 143.554C419.095 157.837 418.625 156.984 397.086 165.445C370.032 176.073 345.869 188.426 345.869 191.63C345.869 193.427 350.352 197.299 357.635 201.794L369.402 209.055L385.621 201.527C410.449 190.003 458.074 174.487 486.522 168.655C498.182 166.263 503.803 154.876 496.787 147.86C493.936 145.01 492.598 144.639 475.208 141.896C425.262 134.012 371.482 109.444 292.465 58.4178C214.186 7.86546 176.696 -5.32376 131.482 1.78403ZM137.258 94.2822C67.1451 117.029 78.6253 218.312 151.703 221.702C172.32 222.658 198.173 212.566 198.173 203.561C198.173 199.599 175.387 193.853 159.206 193.735C104.451 193.334 103.11 121.455 157.846 120.874C186.834 120.565 204.127 113.444 194.787 105.666C180.606 93.8566 154.496 88.6897 137.258 94.2822Z" fill="url(#paint0_linear_321_78)"/>
<path fill-rule="evenodd" clip-rule="evenodd" d="M448.629 7.72067C429.6 13.3548 349.52 58.8487 347.391 65.2356C346.715 67.2649 360.624 76.7759 366.403 78.2379C368.888 78.8654 375.825 75.4458 389.767 66.7209C439.882 35.3591 459.075 27.9359 489.705 28.0627C625.638 28.6268 665.636 214.826 542.888 275.636C490.233 301.722 438.1 286.725 341.566 217.727C337.194 214.601 328.933 209.626 323.209 206.674C317.486 203.72 301.914 195.586 288.604 188.598C275.295 181.61 255.769 172.392 245.213 168.111C218.608 157.32 218.766 158.223 241.875 148.995C261.066 141.334 292.942 126.375 294.112 124.481C295.59 122.09 293.442 119.771 284.522 114.136C273.813 107.368 274.642 107.26 247.585 119.005C223.383 129.511 200.432 137.071 169.279 144.8C138.017 152.555 134.509 166.2 162.63 170.659C186.897 174.508 213.409 182.205 237.848 192.495C257.768 200.883 301.819 222.56 308.25 227.141C311.038 229.125 313.883 230.749 314.572 230.749C315.261 230.749 325.66 237.376 337.68 245.475C443.339 316.674 492.764 328.985 552.657 299.023C675.751 237.445 670.518 65.1521 543.944 12.1549C521.045 2.56714 473.507 0.355865 448.629 7.72067Z" fill="url(#paint1_linear_321_78)"/>
<defs>
<linearGradient id="paint0_linear_321_78" x1="17.5233" y1="-4.1722" x2="476.468" y2="206.942" gradientUnits="userSpaceOnUse">
<stop/>
<stop offset="1" stop-color="#36BABE"/>
</linearGradient>
<linearGradient id="paint1_linear_321_78" x1="143.523" y1="252.003" x2="629.17" y2="146.863" gradientUnits="userSpaceOnUse">
<stop/>
<stop offset="1" stop-color="#008489"/>
</linearGradient>
</defs>
</svg>
